# xmcd
#
# Track frame offsets: 
#        150
#        18082
#        46258
#        59612
#        85507
#        101706
#        126034
#        146813
#        162281
#        177543
#        193341
#        211372
#        226557
#        235872
#        245154
#        259365
#        272791
#        288320
#        300733
#        327082
#        341283
#
# Disc length: 4798 seconds
#
# Revision: 2
# Processed by: cddbd v1.5.2PL0 Copyright (c) Steve Scherf et al.
# Submitted via: ExactAudioCopy v1.3
#
DISCID=3212bc15
DTITLE=Jean Michel Jarre - Planet Jarre [Columbia - 19075833792] Disc 
DTITLE=2
DYEAR=2018
DGENRE=Electronic
TTITLE0=The Opening
TTITLE1=Arpégiateur [Live 21-29.10.1981 in China]
TTITLE2=Automatic, Pt. 1
TTITLE3=Exit
TTITLE4=Équinoxe, Pt. 7 [2018 Version]
TTITLE5=Oxygène, Pt. 8 [2018 Version]
TTITLE6=Stardust
TTITLE7=Herbalizer
TTITLE8=Revolutions [2018 Version]
TTITLE9=Ethnicolor [2018 Version]
TTITLE10=Souvenir de Chine
TTITLE11=Blah-Blah Cafe
TTITLE12=Musique Pour Supermarché, Pt. 1
TTITLE13=Le Pays de Rose
TTITLE14=La Cage
TTITLE15=Erosmachine
TTITLE16=Hypnose [Instrumental Version]
TTITLE17=La Chanson des Granges Brûlées
TTITLE18=Happiness Is a Sad Song
TTITLE19=Metallic Souvenir
TTITLE20=Rendez-Vous, Pt. 6: Ron's Piece [2018 Version]
EXTD=
EXTT0=
EXTT1=
EXTT2=
EXTT3=
EXTT4=
EXTT5=
EXTT6=
EXTT7=
EXTT8=
EXTT9=
EXTT10=
EXTT11=
EXTT12=
EXTT13=
EXTT14=
EXTT15=
EXTT16=
EXTT17=
EXTT18=
EXTT19=
EXTT20=
PLAYORDER=
